<svg class="icon" viewBox="0 0 1036 1024" xmlns="http://www.w3.org/2000/svg">
  <path d="M600.818 697.6c-70.4 0-134.4-25.6-192-76.8-25.6-25.6-25.6-64-6.4-89.6 25.6-25.6 64-25.6 89.6-6.4 57.6 51.2 147.2 51.2 198.4 0l166.4-166.4c25.6-25.6 38.4-64 38.4-102.4 0-25.6-6.4-64-38.4-96-57.6-51.2-147.2-51.2-198.4 0l-64 76.8c-25.6 25.6-64 25.6-89.6 0-25.6-25.6-25.6-64 0-89.6l70.4-70.4c102.4-102.4 268.8-102.4 377.6 0 51.2 51.2 83.2 115.2 83.2 192 0 70.4-25.6 134.4-76.8 192l-166.4 166.4c-57.6 44.8-121.6 70.4-192 70.4z" fill="#8492A6"/>
  <path d="M274.418 1024c-70.4 0-134.4-25.6-192-76.8-108.8-96-108.8-262.4-6.4-377.6l166.4-166.4c108.8-102.4 275.2-102.4 377.6 0 25.6 25.6 25.6 64 0 89.6s-64 25.6-89.6 0c-51.2-51.2-140.8-51.2-198.4 0l-166.4 166.4c-44.8 51.2-64 140.8 0 198.4 57.6 51.2 147.2 51.2 198.4 0l70.4-70.4c25.6-25.6 64-25.6 89.6 0s25.6 64 0 89.6l-70.4 70.4c-44.8 51.2-108.8 76.8-179.2 76.8z" fill="#8492A6"/>
</svg>